<svg width="84" height="12" viewBox="0 0 84 12" fill="none" xmlns="http://www.w3.org/2000/svg">
<path d="M10.764 10.5367C11.0987 10.8714 11.0987 11.4142 10.764 11.7489C10.4292 12.0836 9.88653 12.0836 9.5518 11.7489L4.40898 6.60607C4.08448 6.28158 4.07313 5.75908 4.38322 5.4208L9.09747 0.277983C9.41735 -0.0709729 9.95955 -0.0945466 10.3085 0.225331C10.6575 0.545207 10.681 1.0874 10.3612 1.43636L6.20146 5.97421L10.764 10.5367Z" fill="#A0A0A0"/>
<path d="M6.60629 10.5367C6.94102 10.8714 6.94102 11.4142 6.60629 11.7489C6.27155 12.0836 5.72885 12.0836 5.39411 11.7489L0.251295 6.60607C-0.0731991 6.28158 -0.0845524 5.75908 0.22554 5.4208L4.93979 0.277983C5.25967 -0.0709729 5.80186 -0.0945466 6.15082 0.225331C6.49978 0.545207 6.52335 1.0874 6.20347 1.43636L2.04378 5.97421L6.60629 10.5367Z" fill="#A0A0A0"/>
<path d="M33.6207 10.5367C33.9555 10.8714 33.9555 11.4141 33.6207 11.7489C33.286 12.0836 32.7433 12.0836 32.4086 11.7489L27.2657 6.60604C26.9412 6.28155 26.9299 5.75905 27.24 5.42077L31.9542 0.277953C32.2741 -0.0710034 32.8163 -0.0945771 33.1653 0.2253C33.5142 0.545176 33.5378 1.08737 33.2179 1.43633L29.0582 5.97418L33.6207 10.5367Z" fill="#A0A0A0"/>
<path d="M50.1225 1.46331C49.7878 1.12858 49.7878 0.585873 50.1225 0.251141C50.4573 -0.0835915 51 -0.0835915 51.3347 0.251141L56.4775 5.39396C56.802 5.71845 56.8134 6.24095 56.5033 6.57923L51.789 11.722C51.4691 12.071 50.927 12.0946 50.578 11.7747C50.229 11.4548 50.2055 10.9126 50.5253 10.5637L54.685 6.02582L50.1225 1.46331Z" fill="#A0A0A0"/>
<path d="M77.1372 1.46331C76.8025 1.12858 76.8025 0.585873 77.1372 0.251141C77.4719 -0.0835915 78.0147 -0.0835915 78.3494 0.251141L83.4922 5.39396C83.8167 5.71845 83.8281 6.24095 83.518 6.57923L78.8037 11.722C78.4838 12.071 77.9416 12.0946 77.5927 11.7747C77.2437 11.4548 77.2202 10.9126 77.54 10.5637L81.6997 6.02582L77.1372 1.46331Z" fill="#A0A0A0"/>
<path d="M72.9795 1.46331C72.6448 1.12858 72.6448 0.585873 72.9795 0.251141C73.3143 -0.0835915 73.857 -0.0835915 74.1917 0.251141L79.3345 5.39396C79.659 5.71845 79.6704 6.24095 79.3603 6.57923L74.646 11.722C74.3262 12.071 73.784 12.0946 73.435 11.7747C73.086 11.4548 73.0625 10.9126 73.3823 10.5637L77.542 6.02582L72.9795 1.46331Z" fill="#A0A0A0"/>
</svg>
