<svg width="16" height="16" viewBox="0 0 16 16" fill="none" xmlns="http://www.w3.org/2000/svg">
<g clip-path="url(#clip0_0_692)">
<path d="M8.00008 1.33333C10.5774 1.33333 12.6667 3.42267 12.6667 6C12.6667 6.07567 12.6649 6.15092 12.6614 6.22571C14.2177 6.77333 15.3334 8.25639 15.3334 10C15.3334 12.2091 13.5425 14 11.3334 14H4.66675C2.45761 14 0.666748 12.2091 0.666748 10C0.666748 8.25639 1.78239 6.77333 3.33877 6.22571C3.33521 6.15092 3.33341 6.07567 3.33341 6C3.33341 3.42267 5.42275 1.33333 8.00008 1.33333ZM8.00008 2.66666C6.15913 2.66666 4.66675 4.15905 4.66675 6C4.66675 6.05431 4.66804 6.10841 4.6706 6.16229L4.71783 7.15393L3.7813 7.48346C2.72301 7.85579 2.00008 8.85926 2.00008 10C2.00008 11.4727 3.19399 12.6667 4.66675 12.6667H11.3334C12.8061 12.6667 14.0001 11.4727 14.0001 10C14.0001 8.52666 12.8067 7.33333 11.3334 7.33333C10.1554 7.33333 9.15588 8.09713 8.80288 9.15646L7.53768 8.73473C8.06708 7.14566 9.56675 6 11.3334 6C11.3334 4.15905 9.84101 2.66666 8.00008 2.66666Z" fill="#A0A0A0"/>
</g>
<defs>
<clipPath id="clip0_0_692">
<rect width="16" height="16" fill="white"/>
</clipPath>
</defs>
</svg>
