<svg width="15" height="15" viewBox="0 0 15 15" fill="none" xmlns="http://www.w3.org/2000/svg">
<g clip-path="url(#clip0_0_379)">
<path d="M7.50002 1.24999C4.05002 1.24999 1.25002 4.04999 1.25002 7.49999C1.25002 10.95 4.05002 13.75 7.50002 13.75C10.95 13.75 13.75 10.95 13.75 7.49999C13.75 4.04999 10.95 1.24999 7.50002 1.24999ZM7.50002 12.5C4.73752 12.5 2.50002 10.2625 2.50002 7.49999C2.50002 6.34374 2.89377 5.28124 3.55627 4.43749L10.5625 11.4437C9.71877 12.1062 8.65627 12.5 7.50002 12.5ZM11.4438 10.5625L4.43752 3.55624C5.28127 2.89374 6.34377 2.49999 7.50002 2.49999C10.2625 2.49999 12.5 4.73749 12.5 7.49999C12.5 8.65624 12.1063 9.71874 11.4438 10.5625Z" fill="#545454"/>
</g>
<defs>
<clipPath id="clip0_0_379">
<rect width="14.6087" height="14.6087" fill="white" transform="scale(1.02679)"/>
</clipPath>
</defs>
</svg>
