<svg width="16" height="16" viewBox="0 0 16 16" fill="none" xmlns="http://www.w3.org/2000/svg">
<path d="M7.99992 14.6667C4.31802 14.6667 1.33325 11.6819 1.33325 8.00001C1.33325 4.31811 4.31802 1.33334 7.99992 1.33334C11.6818 1.33334 14.6666 4.31811 14.6666 8.00001C14.6666 11.6819 11.6818 14.6667 7.99992 14.6667ZM7.99992 13.3333C10.9455 13.3333 13.3333 10.9455 13.3333 8.00001C13.3333 5.05449 10.9455 2.66668 7.99992 2.66668C5.0544 2.66668 2.66659 5.05449 2.66659 8.00001C2.66659 10.9455 5.0544 13.3333 7.99992 13.3333ZM7.33325 10H8.66658V11.3333H7.33325V10ZM7.33325 4.66668H8.66658V8.66668H7.33325V4.66668Z" fill="#FF7E17"/>
</svg>
